<svg version="1.1" viewBox="0.0 0.0 960.0 720.0" fill="none" stroke="none" stroke-linecap="square" stroke-miterlimit="10" xmlns:xlink="http://www.w3.org/1999/xlink" xmlns="http://www.w3.org/2000/svg"><clipPath id="p.0"><path d="m0 0l960.0 0l0 720.0l-960.0 0l0 -720.0z" clip-rule="nonzero"/></clipPath><g clip-path="url(#p.0)"><path fill="#000000" fill-opacity="0.0" d="m0 0l960.0 0l0 720.0l-960.0 0z" fill-rule="evenodd"/><path fill="#000000" fill-opacity="0.0" d="m94.8189 151.40158l770.3622 0l0 208.59842l-770.3622 0z" fill-rule="evenodd"/><path fill="#000000" d="m178.03764 288.06406q0 5.703125 -2.15625 10.703125q-2.140625 5.0 -5.890625 8.75q-3.75 3.75 -8.75 5.90625q-5.0 2.140625 -10.703125 2.140625l-7.96875 0q-5.703125 0 -10.75 -2.140625q-5.0312424 -2.15625 -8.781242 -5.90625q-3.75 -3.75 -5.90625 -8.75q-2.140625 -5.0 -2.140625 -10.703125l0 -60.156235q0 -5.703125 2.140625 -10.703125q2.15625 -5.0 5.90625 -8.75q3.75 -3.75 8.781242 -5.890625q5.046875 -2.15625 10.75 -2.15625l7.96875 0q5.703125 0 10.703125 2.15625q5.0 2.140625 8.75 5.890625q3.75 3.75 5.890625 8.75q2.15625 5.0 2.15625 10.703125l0 4.53125l-10.078125 1.5625l0 -6.09375q0 -3.75 -1.40625 -6.984375q-1.40625 -3.25 -3.828125 -5.671875q-2.421875 -2.421875 -5.671875 -3.828125q-3.234375 -1.40625 -6.984375 -1.40625l-7.03125 0q-3.75 0 -7.0 1.40625q-3.234375 1.40625 -5.703125 3.828125q-2.4531174 2.421875 -3.8593674 5.671875q-1.40625 3.234375 -1.40625 6.984375l0 60.156235q0 3.75 1.40625 7.0q1.40625 3.234375 3.8593674 5.703125q2.46875 2.453125 5.703125 3.859375q3.25 1.40625 7.0 1.40625l7.03125 0q3.75 0 6.984375 -1.40625q3.25 -1.40625 5.671875 -3.859375q2.421875 -2.46875 3.828125 -5.703125q1.40625 -3.25 1.40625 -7.0l0 -6.09375l10.078125 1.640625l0 4.453125l0 0zm83.82814 0q0 5.703125 -2.15625 10.703125q-2.140625 5.0 -5.8906403 8.75q-3.75 3.75 -8.75 5.90625q-5.0 2.140625 -10.703125 2.140625l-7.96875 0q-5.703125 0 -10.75 -2.140625q-5.03125 -2.15625 -8.78125 -5.90625q-3.75 -3.75 -5.90625 -8.75q-2.140625 -5.0 -2.140625 -10.703125l0 -60.156235q0 -5.703125 2.140625 -10.703125q2.15625 -5.0 5.90625 -8.75q3.75 -3.75 8.78125 -5.890625q5.046875 -2.15625 10.75 -2.15625l7.96875 0q5.703125 0 10.703125 2.15625q5.0 2.140625 8.75 5.890625q3.7500153 3.75 5.8906403 8.75q2.15625 5.0 2.15625 10.703125l0 60.156235l0 0zm-10.07814 -60.156235q0 -3.75 -1.40625 -6.984375q-1.40625 -3.25 -3.828125 -5.671875q-2.421875 -2.421875 -5.671875 -3.828125q-3.234375 -1.40625 -6.984375 -1.40625l-7.03125 0q-3.75 0 -7.0 1.40625q-3.234375 1.40625 -5.703125 3.828125q-2.453125 2.421875 -3.859375 5.671875q-1.40625 3.234375 -1.40625 6.984375l0 60.156235q0 3.75 1.40625 7.0q1.40625 3.234375 3.859375 5.703125q2.46875 2.453125 5.703125 3.859375q3.25 1.40625 7.0 1.40625l7.03125 0q3.75 0 6.984375 -1.40625q3.25 -1.40625 5.671875 -3.859375q2.421875 -2.46875 3.828125 -5.703125q1.40625 -3.25 1.40625 -7.0l0 -60.156235zm91.875015 86.093735l-46.71875 -81.562485l-0.9375 -4.84375l0 86.406235l-10.078125 0l0 -112.031235l5.234375 0l46.71875 81.64061l1.015625 4.765625l0 -86.406235l10.078125 0l0 112.031235l-5.3125 0zm88.671875 0l-46.71875 -81.562485l-0.9375 -4.84375l0 86.406235l-10.078125 0l0 -112.031235l5.234375 0l46.71875 81.64061l1.015625 4.765625l0 -86.406235l10.078125 0l0 112.031235l-5.3125 0zm30.9375 0l0 -112.031235l63.046875 0l0 9.609375l-52.96875 0l0 41.640625l42.890625 0l0 9.60936l-42.890625 0l0 41.5625l52.96875 0l0 9.609375l-63.046875 0zm131.25 0l-23.046875 -46.5625l-23.046875 46.5625l-10.9375 0l28.515625 -57.578125l-26.875 -54.45311l10.859375 0l21.484375 43.359375l21.40625 -43.359375l10.859375 0l-26.875 54.45311l28.515625 57.578125l-10.859375 0zm28.4375 0l0 -112.031235l10.078125 0l0 112.031235l-10.078125 0zm97.109375 -25.9375q0 5.703125 -2.15625 10.703125q-2.140625 5.0 -5.890625 8.75q-3.75 3.75 -8.75 5.90625q-5.0 2.140625 -10.703125 2.140625l-7.96875 0q-5.703125 0 -10.75 -2.140625q-5.03125 -2.15625 -8.78125 -5.90625q-3.75 -3.75 -5.90625 -8.75q-2.140625 -5.0 -2.140625 -10.703125l0 -60.156235q0 -5.703125 2.140625 -10.703125q2.15625 -5.0 5.90625 -8.75q3.75 -3.75 8.78125 -5.890625q5.046875 -2.15625 10.75 -2.15625l7.96875 0q5.703125 0 10.703125 2.15625q5.0 2.140625 8.75 5.890625q3.75 3.75 5.890625 8.75q2.15625 5.0 2.15625 10.703125l0 60.156235l0 0zm-10.078125 -60.156235q0 -3.75 -1.40625 -6.984375q-1.40625 -3.25 -3.828125 -5.671875q-2.421875 -2.421875 -5.671875 -3.828125q-3.234375 -1.40625 -6.984375 -1.40625l-7.03125 0q-3.75 0 -7.0 1.40625q-3.234375 1.40625 -5.703125 3.828125q-2.453125 2.421875 -3.859375 5.671875q-1.40625 3.234375 -1.40625 6.984375l0 60.156235q0 3.75 1.40625 7.0q1.40625 3.234375 3.859375 5.703125q2.46875 2.453125 5.703125 3.859375q3.25 1.40625 7.0 1.40625l7.03125 0q3.75 0 6.984375 -1.40625q3.25 -1.40625 5.671875 -3.859375q2.421875 -2.46875 3.828125 -5.703125q1.40625 -3.25 1.40625 -7.0l0 -60.156235zm91.875 86.093735l-46.71875 -81.562485l-0.9375 -4.84375l0 86.406235l-10.078125 0l0 -112.031235l5.234375 0l46.71875 81.64061l1.015625 4.765625l0 -86.406235l10.078125 0l0 112.031235l-5.3125 0z" fill-rule="nonzero"/><defs><linearGradient id="p.1" gradientUnits="userSpaceOnUse" gradientTransform="matrix(13.367100909110222 -6.7054637357794995 6.7054637357794995 13.367100909110222 0.0 0.0)" spreadMethod="pad" x1="26.144219605020243" y1="26.171700369902876" x2="26.14417298562068" y2="39.5388012789318"><stop offset="0.0" stop-color="#e69138"/><stop offset="1.0" stop-color="#737373"/></linearGradient></defs><path fill="url(#p.1)" d="m525.2126 174.40685l9.606323 -4.8188934l89.3858 178.80316l-9.606262 4.818878z" fill-rule="evenodd"/></g></svg>