<svg version="1.1" viewBox="0.0 0.0 96.0 96.0" fill="none" stroke="none" stroke-linecap="square" stroke-miterlimit="10" xmlns:xlink="http://www.w3.org/1999/xlink" xmlns="http://www.w3.org/2000/svg"><clipPath id="p.0"><path d="m0 0l96.0 0l0 96.0l-96.0 0l0 -96.0z" clip-rule="nonzero"/></clipPath><g clip-path="url(#p.0)"><path fill="#ffffff" d="m0 0l96.0 0l0 96.0l-96.0 0z" fill-rule="evenodd"/><path fill="#000000" fill-opacity="0.0" d="m10.383439 6.186352l78.525986 0l0 27.817322l-78.525986 0z" fill-rule="evenodd"/><path fill="#000000" d="m58.880806 68.62635l-9.21875 -18.625l-9.21875 18.625l-4.375 0l11.40625 -23.03125l-10.75 -21.78125l4.34375 0l8.59375 17.34375l8.5625 -17.34375l4.34375 0l-10.75 21.78125l11.40625 23.03125l-4.34375 0z" fill-rule="nonzero"/><defs><linearGradient id="p.1" gradientUnits="userSpaceOnUse" gradientTransform="matrix(6.877830215887481 3.062129626674387 -3.062129626674387 6.877830215887481 0.0 0.0)" spreadMethod="pad" x1="4.105166474073128" y1="-0.2981931766035351" x2="4.1051416210935985" y2="6.579637039239041"><stop offset="0.0" stop-color="#e69138"/><stop offset="1.0" stop-color="#737373"/></linearGradient></defs><path fill="url(#p.1)" d="m29.147642 10.519861l7.244093 3.2251968l35.45512 72.46614l-7.244095 -3.2251968z" fill-rule="evenodd"/></g>

</svg>