<svg version="1.1" viewBox="0.0 0.0 96.0 96.0" fill="none" stroke="none" stroke-linecap="square" stroke-miterlimit="10" xmlns:xlink="http://www.w3.org/1999/xlink" xmlns="http://www.w3.org/2000/svg"><clipPath id="p.0"><path d="m0 0l96.0 0l0 96.0l-96.0 0l0 -96.0z" clip-rule="nonzero"/></clipPath><g clip-path="url(#p.0)"><path fill="#000000" fill-opacity="0.0" d="m0 0l96.0 0l0 96.0l-96.0 0z" fill-rule="evenodd"/><path fill="#000000" fill-opacity="0.0" d="m10.383439 6.186352l78.525986 0l0 27.817322l-78.525986 0z" fill-rule="evenodd"/><path fill="#000000" d="m58.880806 68.62635l-9.21875 -18.625l-9.21875 18.625l-4.375 0l11.40625 -23.03125l-10.75 -21.78125l4.34375 0l8.59375 17.34375l8.5625 -17.34375l4.34375 0l-10.75 21.78125l11.40625 23.03125l-4.34375 0z" fill-rule="nonzero"/><defs><linearGradient id="p.1" gradientUnits="userSpaceOnUse" gradientTransform="matrix(6.911178614280807 2.8918061183344776 -2.8918061183344776 6.911178614280807 0.0 0.0)" spreadMethod="pad" x1="4.0514129552652935" y1="-0.10151406466652069" x2="4.051387979875545" y2="6.809664549569159"><stop offset="0.0" stop-color="#e69138"/><stop offset="1.0" stop-color="#737373"/></linearGradient></defs><path fill="url(#p.1)" d="m28.293499 11.014552l7.316536 3.0614176l37.092915 71.64725l-7.316536 -3.0614166z" fill-rule="evenodd"/></g></svg>